<?xml version="1.0" encoding="UTF-8"?>
<svg xmlns="http://www.w3.org/2000/svg" xmlns:xlink="http://www.w3.org/1999/xlink" width="30px" height="px" viewBox="0 0 30 30" version="1.1">
<g id="surface1">
<path style=" stroke:none;fill-rule:evenodd;fill:rgb(0%,0%,0%);fill-opacity:1;" d="M 15 1.875 C 7.753906 1.875 1.875 7.898438 1.875 15.335938 C 1.875 21.28125 5.636719 26.320312 10.851562 28.101562 C 11.507812 28.226562 11.75 27.808594 11.75 27.453125 C 11.75 27.128906 11.734375 26.285156 11.730469 25.160156 C 8.078125 25.972656 7.304688 23.355469 7.304688 23.355469 C 6.707031 21.800781 5.847656 21.386719 5.847656 21.386719 C 4.65625 20.546875 5.933594 20.566406 5.933594 20.566406 C 7.253906 20.660156 7.945312 21.953125 7.945312 21.953125 C 9.117188 24.011719 11.015625 23.417969 11.765625 23.074219 C 11.882812 22.207031 12.222656 21.609375 12.597656 21.273438 C 9.683594 20.933594 6.621094 19.78125 6.621094 14.625 C 6.621094 13.152344 7.128906 11.953125 7.96875 11.015625 C 7.832031 10.675781 7.382812 9.304688 8.097656 7.453125 C 8.097656 7.453125 9.199219 7.089844 11.707031 8.828125 C 12.753906 8.53125 13.875 8.382812 14.992188 8.378906 C 16.105469 8.382812 17.230469 8.53125 18.28125 8.828125 C 20.789062 7.089844 21.882812 7.453125 21.882812 7.453125 C 22.597656 9.304688 22.148438 10.675781 22.011719 11.015625 C 22.851562 11.960938 23.359375 13.160156 23.359375 14.625 C 23.359375 19.792969 20.289062 20.929688 17.367188 21.265625 C 17.835938 21.679688 18.257812 22.5 18.257812 23.753906 C 18.257812 25.550781 18.238281 27.007812 18.238281 27.445312 C 18.238281 27.804688 18.472656 28.226562 19.140625 28.089844 C 24.367188 26.3125 28.125 21.273438 28.125 15.335938 C 28.125 7.898438 22.25 1.875 15 1.875 Z M 15 1.875 "/>
</g>
</svg>
