<?xml version="1.0" encoding="UTF-8"?>
<svg xmlns="http://www.w3.org/2000/svg" xmlns:xlink="http://www.w3.org/1999/xlink" width="30px" height="px" viewBox="0 0 30 30" version="1.1">
<g id="surface1">
<path style=" stroke:none;fill-rule:evenodd;fill:rgb(0%,48.235294%,70.980392%);fill-opacity:1;" d="M 30 15 C 30 23.285156 23.285156 30 15 30 C 6.714844 30 0 23.285156 0 15 C 0 6.714844 6.714844 0 15 0 C 23.285156 0 30 6.714844 30 15 Z M 30 15 "/>
<path style=" stroke:none;fill-rule:nonzero;fill:rgb(100%,100%,100%);fill-opacity:1;" d="M 6.5625 10.3125 L 10.3125 10.3125 L 10.3125 23.4375 L 6.5625 23.4375 Z M 6.5625 10.3125 "/>
<path style=" stroke:none;fill-rule:nonzero;fill:rgb(100%,100%,100%);fill-opacity:1;" d="M 19.21875 10.3125 C 16.601562 10.3125 16.152344 11.265625 15.9375 12.1875 L 15.9375 10.3125 L 12.1875 10.3125 L 12.1875 23.4375 L 15.9375 23.4375 L 15.9375 15.9375 C 15.9375 14.722656 16.597656 14.0625 17.8125 14.0625 C 19 14.0625 19.6875 14.707031 19.6875 15.9375 L 19.6875 23.4375 L 23.4375 23.4375 L 23.4375 16.875 C 23.4375 13.125 22.949219 10.3125 19.21875 10.3125 Z M 19.21875 10.3125 "/>
<path style=" stroke:none;fill-rule:nonzero;fill:rgb(100%,100%,100%);fill-opacity:1;" d="M 10.3125 7.5 C 10.3125 8.535156 9.472656 9.375 8.4375 9.375 C 7.402344 9.375 6.5625 8.535156 6.5625 7.5 C 6.5625 6.464844 7.402344 5.625 8.4375 5.625 C 9.472656 5.625 10.3125 6.464844 10.3125 7.5 Z M 10.3125 7.5 "/>
</g>
</svg>
